# xmcd
#
# Track frame offsets:
#	150
#	66571
#	78949
#	132613
#	136877
#	222614
#	234988
#	256502
#	287098
#
# Disc length: 4319 seconds
#
# Revision: 1
# Processed by: cddbd v1.5.2PL0 Copyright (c) Steve Scherf et al.
# Submitted via: audiograbber 1.83.01
#
DISCID=8710dd09
DTITLE=Grateful Dead - 72-09-09A Hollywood Palladium, Hollywood CA
DYEAR=1900
DGENRE=
TTITLE0=Truckin'
TTITLE1=Drums
TTITLE2=The Other One > Jam
TTITLE3=The Other One
TTITLE4=Space
TTITLE5=The Other One
TTITLE6=El Paso
TTITLE7=Casey Jones
TTITLE8=Sugar Magnolia
EXTD=
EXTT0=
EXTT1=
EXTT2=
EXTT3=
EXTT4=
EXTT5=
EXTT6=
EXTT7=
EXTT8=
PLAYORDER=
